<svg width="65" height="65" viewBox="0 0 65 65" fill="none" xmlns="http://www.w3.org/2000/svg">
<circle cx="32.5642" cy="32.1079" r="32.0507" fill="#FFE8E0"/>
<g clip-path="url(#clip0_1_60)">
<path d="M33 31.1519C36.6607 31.1519 39.632 28.2021 39.632 24.5841C39.632 20.9661 36.6607 18 33 18C29.3393 18 26.368 20.9498 26.368 24.5678C26.368 28.1858 29.3393 31.1356 32.9836 31.1356L33 31.1519ZM39.5992 34.4602H26.4008C23.4131 34.4602 21 36.8559 21 39.822V41.3703C21 42.2666 21.7387 43 22.6416 43H43.3584C44.2613 43 45 42.2666 45 41.3703V39.822C45 36.8559 42.5869 34.4602 39.5992 34.4602Z" fill="#F57343"/>
</g>
<defs>
<clipPath id="clip0_1_60">
<rect width="24" height="25" fill="white" transform="translate(21 18)"/>
</clipPath>
</defs>
</svg>
