<svg width="65" height="65" viewBox="0 0 65 65" fill="none" xmlns="http://www.w3.org/2000/svg">
<circle cx="32.0886" cy="32.1079" r="32.0507" fill="#FFF0CD"/>
<g clip-path="url(#clip0_1_70)">
<path d="M47.727 29.5217V32.1211H41.5015C40.1614 32.1211 39.0756 33.2223 39.0756 34.5801C39.0756 35.9378 40.1614 37.0419 41.5015 37.0419H47.3986C48.2817 37.0419 48.9986 36.3163 48.9986 35.4205V30.399C48.9986 29.9143 48.6115 29.5217 48.1336 29.5217H47.7256H47.727Z" fill="#F8C546"/>
<path d="M42.9073 33.7352C42.6362 33.3157 42.1681 33.0393 41.6371 33.0393C40.7986 33.0393 40.1181 33.7295 40.1181 34.5799C40.1181 35.127 40.4004 35.6075 40.8238 35.881C41.0586 36.0326 41.338 36.1205 41.6371 36.1205C42.4755 36.1205 43.1561 35.4303 43.1561 34.5799C43.1561 34.2681 43.0638 33.9776 42.9073 33.7352Z" fill="white"/>
<path d="M34.6626 21.3835L29.5481 15L21.7995 21.3864L34.6626 21.3835Z" fill="#F8C546"/>
<path d="M38.6858 21.4176L34.766 16.5237L33.064 17.9254L35.8616 21.4176H38.6858Z" fill="#F8C546"/>
<path d="M42.7788 21.382L39.4571 17.1089L37.5986 18.5956L39.8316 21.382H42.7788Z" fill="#F8C546"/>
<path d="M41.3464 38.024C39.4711 38.024 37.9521 36.482 37.9521 34.58C37.9521 32.678 39.4725 31.1359 41.3464 31.1359H46.6733V24.194C46.6733 23.1835 45.8642 22.3628 44.8665 22.3643L21.4013 22.3685H19.804C18.8077 22.3699 18 23.1891 18 24.1997L18.0028 43.1702C18.0028 44.1808 18.8119 45.0014 19.8082 45H21.4055L44.8707 44.9957C45.867 44.9957 46.6761 44.1751 46.6747 43.1646V38.0226H41.3464V38.024Z" fill="#F8C546"/>
</g>
<defs>
<clipPath id="clip0_1_70">
<rect width="31" height="30" fill="white" transform="translate(18 15)"/>
</clipPath>
</defs>
</svg>
