<svg width="65" height="65" viewBox="0 0 65 65" fill="none" xmlns="http://www.w3.org/2000/svg">
<circle cx="32.613" cy="32.1079" r="32.0507" fill="#EBDDFD"/>
<g clip-path="url(#clip0_1_84)">
<path d="M35.5698 19C34.4033 19 33.4593 19.9299 33.4593 21.0791V33.1756C33.4593 33.6973 33.0295 34.1207 32.5 34.1207C31.9705 34.1207 31.5407 33.6973 31.5407 33.1756V21.0791C31.5407 19.9299 30.5968 19 29.4302 19H20.0291V39.0349H28.4095C29.9137 39.0349 31.3412 39.5263 32.5 40.4184C33.6512 39.5188 35.0863 39.0349 36.5905 39.0349H44.9709V19H35.5698ZM25.9768 32.2306H22.907C22.3775 32.2306 21.9477 31.8072 21.9477 31.2855C21.9477 30.7639 22.3775 30.3405 22.907 30.3405H25.9768C26.5063 30.3405 26.9361 30.7639 26.9361 31.2855C26.9361 31.8072 26.5063 32.2306 25.9768 32.2306ZM28.2791 28.4504H22.907C22.3775 28.4504 21.9477 28.027 21.9477 27.5054C21.9477 26.9837 22.3775 26.5603 22.907 26.5603H28.2791C28.8086 26.5603 29.2384 26.9837 29.2384 27.5054C29.2384 28.027 28.8086 28.4504 28.2791 28.4504ZM28.2791 24.6703H22.907C22.3775 24.6703 21.9477 24.2469 21.9477 23.7252C21.9477 23.2035 22.3775 22.7802 22.907 22.7802H28.2791C28.8086 22.7802 29.2384 23.2035 29.2384 23.7252C29.2384 24.2469 28.8086 24.6703 28.2791 24.6703Z" fill="#864BD8"/>
<path d="M47.8488 21.0791C47.2119 21.0791 46.6977 21.5856 46.6977 22.2132V40.736H37.1737C35.4547 40.736 33.8277 41.2954 32.5 42.3388C31.1723 41.303 29.5453 40.736 27.8263 40.736H18.3023V22.2132C18.3023 21.5856 17.7881 21.0791 17.1512 21.0791C16.5142 21.0791 16 21.5856 16 22.2132V40.8721C16 42.0515 16.9747 43.0041 18.1642 43.0041H27.8263C29.2153 43.0041 30.5277 43.5333 31.51 44.4935L31.6865 44.6674C31.9091 44.8866 32.2007 45 32.5 45C32.7993 45 33.0833 44.8866 33.3135 44.6674L33.49 44.4935C34.4723 43.5333 35.7847 42.9965 37.1737 42.9965H46.8358C48.033 42.9965 49 42.0364 49 40.8645V22.2132C49 21.5856 48.4858 21.0791 47.8488 21.0791Z" fill="#864BD8"/>
</g>
<defs>
<clipPath id="clip0_1_84">
<rect width="33" height="26" fill="white" transform="translate(16 19)"/>
</clipPath>
</defs>
</svg>
