<svg width="65" height="65" viewBox="0 0 65 65" fill="none" xmlns="http://www.w3.org/2000/svg">
<circle cx="32.1882" cy="32.1079" r="32.0507" fill="#F3DDEA"/>
<g clip-path="url(#clip0_1_477)">
<path d="M43.3979 19H39.9917C39.055 19 38.2886 19.7664 38.2886 20.7031C38.2886 21.6398 37.5222 22.4062 36.5855 22.4062C35.6488 22.4062 34.8824 21.6398 34.8824 20.7031C34.8824 19.7664 34.116 19 33.1793 19H28.9216C27.9849 19 27.2185 19.7664 27.2185 20.7031C27.2185 21.6398 26.4521 22.4062 25.5154 22.4062C24.5787 22.4062 23.8124 21.6398 23.8124 20.7031C23.8124 19.7664 23.046 19 22.1093 19H18.7031C17.7664 19 17 19.7664 17 20.7031V41.9917C17 42.9284 17.7664 43.6948 18.7031 43.6948H31.6125C31.1612 42.5537 30.8972 41.319 30.8972 40.0161C30.8972 34.5236 35.3508 30.0701 40.8432 30.0701C42.3675 30.0701 43.8066 30.4277 45.101 31.0408V20.7031C45.101 19.7664 44.3346 19 43.3979 19ZM22.1093 39.5903C21.1726 39.5903 20.4062 38.8239 20.4062 37.8872C20.4062 36.9505 21.1726 36.1842 22.1093 36.1842C23.046 36.1842 23.8124 36.9505 23.8124 37.8872C23.8124 38.8239 23.046 39.5903 22.1093 39.5903ZM22.1093 34.4811C21.1726 34.4811 20.4062 33.7147 20.4062 32.778C20.4062 31.8413 21.1726 31.0749 22.1093 31.0749C23.046 31.0749 23.8124 31.8413 23.8124 32.778C23.8124 33.7147 23.046 34.4811 22.1093 34.4811ZM27.2185 39.5903C26.2818 39.5903 25.5154 38.8239 25.5154 37.8872C25.5154 36.9505 26.2818 36.1842 27.2185 36.1842C28.1552 36.1842 28.9216 36.9505 28.9216 37.8872C28.9216 38.8239 28.1552 39.5903 27.2185 39.5903ZM27.2185 34.4811C26.2818 34.4811 25.5154 33.7147 25.5154 32.778C25.5154 31.8413 26.2818 31.0749 27.2185 31.0749C28.1552 31.0749 28.9216 31.8413 28.9216 32.778C28.9216 33.7147 28.1552 34.4811 27.2185 34.4811ZM27.2185 29.3718C26.2818 29.3718 25.5154 28.6054 25.5154 27.6687C25.5154 26.732 26.2818 25.9656 27.2185 25.9656C28.1552 25.9656 28.9216 26.732 28.9216 27.6687C28.9216 28.6054 28.1552 29.3718 27.2185 29.3718ZM32.3278 29.3718C31.3911 29.3718 30.6247 28.6054 30.6247 27.6687C30.6247 26.732 31.3911 25.9656 32.3278 25.9656C33.2645 25.9656 34.0309 26.732 34.0309 27.6687C34.0309 28.6054 33.2645 29.3718 32.3278 29.3718Z" fill="#C69FB6"/>
<path d="M40.8432 32.3523C36.611 32.3523 33.1793 35.784 33.1793 40.0162C33.1793 44.2484 36.611 47.6801 40.8432 47.6801C45.0754 47.6801 48.5071 44.2484 48.5071 40.0162C48.5071 35.784 45.0754 32.3523 40.8432 32.3523ZM41.9076 40.442C41.9076 41.0295 41.4308 41.5064 40.8432 41.5064H36.5855C35.9979 41.5064 35.5211 41.0295 35.5211 40.442C35.5211 39.8544 35.9979 39.3775 36.5855 39.3775H39.7788V35.3327C39.7788 34.7451 40.2557 34.2683 40.8432 34.2683C41.4308 34.2683 41.9076 34.7451 41.9076 35.3327V40.442Z" fill="#C69FB6"/>
</g>
<defs>
<clipPath id="clip0_1_477">
<rect width="31.5071" height="28.68" fill="white" transform="translate(17 19)"/>
</clipPath>
</defs>
</svg>
