<svg width="14" height="20" viewBox="0 0 14 20" fill="none" xmlns="http://www.w3.org/2000/svg">
<path fill-rule="evenodd" clip-rule="evenodd" d="M1.81831 0.666504C1.78426 0.666504 1.75031 0.666929 1.71647 0.667775H12.3511C12.3173 0.666929 12.2833 0.666504 12.2493 0.666504H1.81831ZM12.2788 19.3331H1.78877C1.79861 19.3331 1.80846 19.3332 1.81831 19.3332H12.2493C12.2591 19.3332 12.269 19.3331 12.2788 19.3331ZM10.7915 16.5718H13.5224L13.5235 11.6853C13.5235 9.28647 13.0132 7.44253 10.2453 7.44253C9.72597 7.423 9.21113 7.54651 8.75562 7.79989C8.30012 8.05327 7.92099 8.42703 7.65863 8.88138H7.62193V7.66409H5.00027V16.5715H7.73117V12.165C7.73117 11.0031 7.94878 9.87768 9.37112 9.87768C10.7733 9.87768 10.7915 11.2073 10.7915 12.2402V16.5718ZM1.03842 6.17617C1.29906 6.35249 1.60548 6.44657 1.91892 6.44651C2.12703 6.44647 2.3331 6.40492 2.52536 6.32422C2.71762 6.24352 2.8923 6.12526 3.03944 5.97619C3.18657 5.82711 3.30327 5.65015 3.38288 5.4554C3.46249 5.26064 3.50344 5.05191 3.5034 4.84113C3.50335 4.52367 3.41035 4.21336 3.23616 3.94944C3.06198 3.68551 2.81444 3.47983 2.52484 3.3584C2.23524 3.23696 1.91659 3.20524 1.60918 3.26722C1.30178 3.32921 1.01942 3.48213 0.79783 3.70665C0.576236 3.93117 0.425352 4.2172 0.364258 4.52856C0.303165 4.83993 0.334606 5.16266 0.454606 5.45593C0.574605 5.7492 0.777773 5.99984 1.03842 6.17617ZM0.550627 16.5718H3.28436V7.66409H0.550627V16.5718Z" fill="#292929"/>
</svg>
