<svg width="16" height="16" viewBox="0 0 16 16" fill="none" xmlns="http://www.w3.org/2000/svg">
<g clip-path="url(#clip0_7_165)">
<path d="M15.8167 7.55756C15.8165 7.55737 15.8163 7.55715 15.8161 7.55696L12.5504 4.30697C12.3057 4.0635 11.91 4.0644 11.6665 4.30909C11.423 4.55375 11.4239 4.94947 11.6686 5.19297L13.8612 7.37496H0.625C0.279813 7.37496 0 7.65478 0 7.99996C0 8.34515 0.279813 8.62496 0.625 8.62496H13.8612L11.6686 10.807C11.4239 11.0505 11.423 11.4462 11.6665 11.6908C11.91 11.9356 12.3058 11.9364 12.5504 11.693L15.8162 8.44296C15.8163 8.44277 15.8165 8.44256 15.8167 8.44237C16.0615 8.19806 16.0607 7.80106 15.8167 7.55756Z" fill="white"/>
</g>
<defs>
<clipPath id="clip0_7_165">
<rect width="16" height="16" fill="white"/>
</clipPath>
</defs>
</svg>
