<svg width="261" height="166" viewBox="0 0 261 166" fill="none" xmlns="http://www.w3.org/2000/svg">
<path d="M339.544 55.8541C368.313 33.8629 329.669 23.0157 300.757 45.1185C290.324 53.1243 277.907 61.4689 263.947 67.1053C259.424 69.0635 254.718 70.466 250.283 71.1769C248.744 71.4487 247.39 71.4013 246.435 71.0422L246.355 70.8498C245.366 67.563 253.942 59.0109 257.04 55.0651C263.644 46.6044 269.173 38.6603 271.024 30.8061C276.931 4.54335 241.738 -10.2228 192.884 3.96274C181.649 7.48489 170.42 11.3579 159.258 15.5607C151.852 18.1743 152.338 17.1559 153.503 12.5736C154.936 6.17776 163.07 -2.43352 167.644 -9.30274C174.471 -19.5057 178.909 -29.6173 172.347 -36.0889C150.574 -57.5166 58.3102 -24.1713 41.9307 9.3666C35.4491 22.5859 58.6737 22.2616 75.9874 10.5592C84.4434 4.81762 94.7695 -1.80642 105.395 -5.34281C106.203 -5.67911 112.358 -6.83443 115.831 -7.60244C112.6 -4.52172 110.056 1.48523 108.017 4.33058C104.9 8.53526 102.157 12.715 99.8024 16.8475C95.5042 24.737 94.0618 32.1342 95.58 38.5024C97.1617 45.1584 103.475 49.8083 113.447 51.6622C123.419 53.5161 136.436 52.4597 150.286 48.6725C167.005 44.1974 189.018 32.397 202.394 34.4697C213.87 36.257 215.142 43.8705 208.863 52.8384C197.76 68.7106 182.468 84.086 189.552 96.2782C196.84 108.871 223.976 109.836 252.653 101.565C284.821 92.2058 315.848 73.9979 339.544 55.8541Z" fill="white"/>
<path d="M338.632 54.6632L338.633 54.6624C345.762 49.2131 348.209 44.8076 348.186 41.8025C348.165 39.0433 345.968 36.6754 341.378 35.396C332.248 32.8511 315.837 35.4787 301.668 46.3102C291.191 54.3491 278.658 62.7805 264.526 68.4891C259.908 70.4868 255.092 71.924 250.532 72.6562C248.862 72.9497 247.21 72.9363 245.907 72.4461L245.3 72.2176L245.05 71.6185L244.97 71.4261L244.941 71.3553L244.919 71.2819C244.685 70.5068 244.769 69.7093 244.952 69.009C245.139 68.297 245.462 67.5627 245.851 66.8409C246.627 65.3981 247.768 63.816 248.989 62.2737C250.217 60.7222 251.569 59.1567 252.792 57.7497C252.899 57.6272 253.004 57.5062 253.108 57.3865C254.214 56.1161 255.177 55.009 255.858 54.1421C262.476 45.6623 267.795 37.9594 269.562 30.4692C270.954 24.2759 269.915 18.856 266.928 14.3685C263.92 9.84804 258.847 6.14842 251.973 3.6244C238.208 -1.42924 217.55 -1.63487 193.317 5.39883C182.115 8.91116 170.918 12.7734 159.787 16.9645L159.772 16.97L159.757 16.9752C157.904 17.6291 156.46 18.0872 155.372 18.3104C154.827 18.422 154.3 18.4907 153.815 18.4711C153.333 18.4517 152.758 18.3397 152.258 17.9598C151.188 17.1463 151.291 15.8194 151.382 15.1419C151.476 14.4383 151.702 13.5598 151.94 12.6304C151.974 12.4958 152.009 12.3601 152.044 12.2237C152.844 8.68653 155.421 4.71012 158.185 0.928028C159.302 -0.600884 160.449 -2.09843 161.567 -3.55875C163.322 -5.84965 165.007 -8.04896 166.395 -10.1341L166.397 -10.1369C169.79 -15.2068 172.483 -20.107 173.56 -24.4558C174.622 -28.7426 174.077 -32.2756 171.294 -35.021C166.328 -39.9071 157.051 -41.8771 145.167 -41.2447C133.383 -40.6176 119.443 -37.4518 105.617 -32.5592C91.797 -27.6687 78.1623 -21.0778 66.987 -13.6487C55.7735 -6.19419 47.1993 1.99691 43.2786 10.0249L43.2776 10.027C41.8066 13.027 42.2328 14.7379 43.1794 15.7519C44.2902 16.9418 46.603 17.7563 50.0585 17.8087C56.8602 17.9118 66.6979 15.027 75.1456 9.31764C83.5914 3.58301 94.055 -3.1421 104.884 -6.75368C105.251 -6.89324 105.901 -7.04743 106.549 -7.19317C107.308 -7.36404 108.273 -7.56637 109.311 -7.77993C109.855 -7.89198 110.42 -8.00715 110.987 -8.12295C112.598 -8.45164 114.233 -8.78543 115.507 -9.06705L120.758 -10.2284L116.866 -6.51692C115.422 -5.13994 114.07 -3.03871 112.776 -0.797711C112.426 -0.190664 112.076 0.434886 111.729 1.05387C110.856 2.61242 110.007 4.12932 109.237 5.20435L109.23 5.2142L109.222 5.22394C106.14 9.38093 103.433 13.5064 101.113 17.5778C96.9308 25.2589 95.6352 32.2656 97.0391 38.1546L97.0394 38.1556C98.4213 43.9712 104.009 48.382 113.721 50.1874C123.398 51.9864 136.174 50.9763 149.89 47.2256L149.898 47.2235C155.419 45.7457 161.478 43.4763 167.685 41.151C170.801 39.9838 173.955 38.8025 177.097 37.7002C181.752 36.0673 186.351 34.6219 190.652 33.7173C194.94 32.8152 199.026 32.4298 202.624 32.9873L202.625 32.9875C208.619 33.921 212.516 36.4788 213.724 40.533C214.891 44.448 213.318 49.092 210.092 53.6988M338.632 54.6632L208.863 52.8384M338.632 54.6632C315.034 72.7312 284.175 90.831 252.238 100.124M338.632 54.6632L339.544 55.8541C315.848 73.9979 284.821 92.2058 252.653 101.565M210.092 53.6988L208.863 52.8384M210.092 53.6988C210.092 53.6986 210.092 53.6985 210.093 53.6983L208.863 52.8384M210.092 53.6988C208.012 56.6728 205.78 59.6369 203.592 62.5417C202.843 63.537 202.099 64.5253 201.367 65.5047C198.486 69.3646 195.798 73.0993 193.68 76.6989C189.394 83.9833 187.751 90.1932 190.848 95.5246L190.85 95.5268C194.098 101.14 202.016 104.475 213.185 105.249C224.244 106.015 238.017 104.225 252.238 100.124M208.863 52.8384C206.799 55.7892 204.59 58.7228 202.407 61.6219C192.847 74.3173 183.785 86.3526 189.552 96.2782C196.84 108.871 223.976 109.836 252.653 101.565M252.238 100.124C252.236 100.124 252.235 100.124 252.234 100.125L252.653 101.565M252.238 100.124L252.653 101.565" fill="white" stroke="#864BD8" stroke-width="3"/>
<rect y="-9" width="94" height="29" fill="white"/>
<rect x="133" y="-9" width="134" height="29" fill="white"/>
<rect x="228" y="-5" width="40" height="83" fill="white"/>
</svg>
