<svg width="176" height="139" viewBox="0 0 176 139" fill="none" xmlns="http://www.w3.org/2000/svg">
<path d="M299.544 87.8541C328.313 65.8629 289.669 55.0157 260.757 77.1185C250.324 85.1243 237.907 93.4689 223.947 99.1053C219.424 101.063 214.718 102.466 210.283 103.177C208.744 103.449 207.39 103.401 206.435 103.042L206.355 102.85C205.366 99.563 213.942 91.0109 217.04 87.0651C223.644 78.6044 229.173 70.6603 231.024 62.8061C236.931 36.5433 201.738 21.7772 152.884 35.9627C141.649 39.4849 130.42 43.3579 119.258 47.5607C111.852 50.1743 112.338 49.1559 113.503 44.5736C114.936 38.1778 123.07 29.5665 127.644 22.6973C134.471 12.4943 138.909 2.38273 132.347 -4.0889C110.574 -25.5166 18.3102 7.82868 1.93074 41.3666C-4.55089 54.5859 18.6737 54.2616 35.9874 42.5592C44.4434 36.8176 54.7695 30.1936 65.3946 26.6572C66.2027 26.3209 72.3581 25.1656 75.8306 24.3976C72.6001 27.4783 70.0565 33.4852 68.0173 36.3306C64.8999 40.5353 62.1567 44.715 59.8024 48.8475C55.5042 56.737 54.0618 64.1342 55.58 70.5024C57.1617 77.1584 63.4748 81.8083 73.447 83.6622C83.4192 85.5161 96.4357 84.4597 110.286 80.6725C127.005 76.1974 149.018 64.397 162.394 66.4697C173.87 68.257 175.142 75.8705 168.863 84.8384C157.76 100.711 142.468 116.086 149.552 128.278C156.84 140.871 183.976 141.836 212.653 133.565C244.821 124.206 275.848 105.998 299.544 87.8541Z" fill="white"/>
</svg>
