<svg width="14" height="12" viewBox="0 0 14 12" fill="none" xmlns="http://www.w3.org/2000/svg">
<path d="M4.40218 12C9.68546 12 12.5747 7.38372 12.5747 3.38065C12.5747 3.24955 12.5721 3.11904 12.5666 2.98907C13.1287 2.56008 13.6139 2.02888 13.9993 1.42039C13.4847 1.66169 12.9308 1.8241 12.3499 1.89734C12.9429 1.52226 13.3981 0.929023 13.6129 0.221776C13.0491 0.57457 12.4322 0.823255 11.789 0.957116C11.2649 0.368289 10.5187 0 9.69237 0C8.10616 0 6.81987 1.35667 6.81987 3.02896C6.81987 3.26669 6.8451 3.49793 6.89438 3.71971C4.50713 3.59301 2.39029 2.38756 0.973584 0.554589C0.718426 1.01686 0.584207 1.5423 0.584643 2.0772C0.584643 3.12821 1.09174 4.05604 1.86285 4.59884C1.40673 4.58416 0.960617 4.45422 0.561999 4.21994C0.561576 4.23268 0.561576 4.24506 0.561576 4.25864C0.561576 5.72575 1.55166 6.95068 2.86595 7.22824C2.61911 7.29916 2.36439 7.33501 2.10856 7.33487C1.92737 7.33474 1.74661 7.31644 1.56872 7.28022C1.9344 8.48388 2.99477 9.35979 4.25194 9.38427C3.26885 10.197 2.03043 10.681 0.684474 10.681C0.452913 10.681 0.224171 10.6671 -0.000671387 10.6391C1.27054 11.4984 2.77998 11.9999 4.40232 11.9999" fill="#292929"/>
</svg>
